inDegrees=no
num_controls=7
num_derivatives=13
num_iterations=151
num_multipliers=7
num_parameters=0
num_slacks=7
num_states=26
objective=0.523898
objective_accelerations=0.030075
objective_balance=0.002007
objective_effort=0.034469
objective_height=0.444774
objective_ligament=0.012573
solver_duration=1964.785814
status=Solve_Succeeded
success=true
DataType=double
version=3
OpenSimVersion=4.5
endheader
time	/jointset/ground_pelvis/pelvis_tilt/value	/jointset/ground_pelvis/pelvis_tx/value	/jointset/ground_pelvis/pelvis_ty/value	/jointset/hip_l/hip_flexion_l/value	/jointset/hip_l/hip_adduction_l/value	/jointset/hip_l/hip_rotation_l/value	/jointset/back/lumbar_extension/value	/jointset/patellofemoral_l/patellar_flexion_l/value	/jointset/knee_l/knee_flexion_l/value	/jointset/knee_l/knee_adduction_l/value	/jointset/knee_l/knee_rotation_l/value	/jointset/ankle_l/ankle_angle_l/value	/jointset/subtalar_l/subtalar_angle_l/value	/jointset/ground_pelvis/pelvis_tilt/speed	/jointset/ground_pelvis/pelvis_tx/speed	/jointset/ground_pelvis/pelvis_ty/speed	/jointset/hip_l/hip_flexion_l/speed	/jointset/hip_l/hip_adduction_l/speed	/jointset/hip_l/hip_rotation_l/speed	/jointset/back/lumbar_extension/speed	/jointset/patellofemoral_l/patellar_flexion_l/speed	/jointset/knee_l/knee_flexion_l/speed	/jointset/knee_l/knee_adduction_l/speed	/jointset/knee_l/knee_rotation_l/speed	/jointset/ankle_l/ankle_angle_l/speed	/jointset/subtalar_l/subtalar_angle_l/speed	/forceset/tau_hip_flexion_l	/forceset/tau_hip_adduction_l	/forceset/tau_hip_rotation_l	/forceset/tau_knee_flexion_l	/forceset/tau_ankle_angle_l	/forceset/tau_subtalar_angle_l	/forceset/tau_lumbar_extension	lambda_cid13_p0	lambda_cid13_p1	lambda_cid13_p2	lambda_cid13_p3	lambda_cid13_p4	lambda_cid13_p5	lambda_cid14_p0	/jointset/ground_pelvis/pelvis_tilt/accel	/jointset/ground_pelvis/pelvis_tx/accel	/jointset/ground_pelvis/pelvis_ty/accel	/jointset/hip_l/hip_flexion_l/accel	/jointset/hip_l/hip_adduction_l/accel	/jointset/hip_l/hip_rotation_l/accel	/jointset/back/lumbar_extension/accel	/jointset/patellofemoral_l/patellar_flexion_l/accel	/jointset/knee_l/knee_flexion_l/accel	/jointset/knee_l/knee_adduction_l/accel	/jointset/knee_l/knee_rotation_l/accel	/jointset/ankle_l/ankle_angle_l/accel	/jointset/subtalar_l/subtalar_angle_l/accel	gamma_cid13_p0	gamma_cid13_p1	gamma_cid13_p2	gamma_cid13_p3	gamma_cid13_p4	gamma_cid13_p5	gamma_cid14_p0
1	-0.06533568549218197	-0.06359963754763683	0.797106736742154	0.9529575888427408	-0.3242873333760999	-0.0783012914474245	-0.9599309177981865	0.9534922766603665	0.9534922766603552	-0.0834817453706109	-0.1745213108814412	0.1332851392891204	0.01378533180666801	0.1142103612090754	0.0295825076489063	0.05979201593590883	-0.2978704667986302	0.006455598536373665	-0.06391446236617611	-0.004350219645846164	-0.1747782841931863	-0.1747782841931719	-0.0007823597467923168	-7.688707905416348e-05	0.000616122739743447	0.008582697241299215	-0.3295939474871325	0.0338142756104365	-0.00709713471181155	-0.2578383294251101	0.08149175350435131	0.04779667775058508	0.3989972848936947	-22.28105590337625	-17.85651575369216	3.534373291418427	3.879642120134303	-765.7270408559482	-74.69850793055345	-8.403089424582587	0.6306828813687597	0.2149223844045279	0.8536701237365044	-3.442906392919041	0.07584369838265245	-1.075215540442785	0.8456380384360092	-3.458337522770098	-3.458337522770209	-0.2665497954679865	-6.582462342827268e-05	-0.8707619126001003	-0.2145754689480342	-8.02932125054125e-09	-2.00839789180474e-08	1.773420349509032e-08	4.861908970390559e-09	-2.254764210211777e-08	1.422623606280278e-08	-5.925555286070193e-09
1.01	-0.06416261166728753	-0.06329293565657815	0.7977471473152157	0.9498076722125927	-0.3242186126176724	-0.07899402851008566	-0.9599307707477561	0.9515720662690151	0.9515720662690004	-0.08350227553401837	-0.1745216248193746	0.133248067825823	0.01386096212857453	0.1203885413004482	0.0317725506479099	0.06828192494776046	-0.3320992829873193	0.007291997233553731	-0.07462899742149051	0.004467640206414427	-0.2092549886147082	-0.2092549886146926	-0.003325581590129484	1.311004763093673e-05	-0.008017727310948505	0.006551603466971134	-0.3294016733735268	0.03399674956825072	-0.00710390284675908	-0.2573299311846224	0.08126934727729247	0.04786298517832061	0.3992971872069629	-22.34426572328046	-17.88914949743874	3.556599962780608	3.662636270701503	-765.8134535401911	-74.74983792244156	-8.482153459268602	0.6090058186348939	0.2232488270417626	0.8454197998529667	-3.410833804830119	0.08805656573217113	-1.06898785578267	0.9130615293308914	-3.441014539818854	-3.441014539818613	-0.2485008384262752	0.01338961380722637	-0.8577950253513738	-0.1961391473744879	-1.133881516274597e-08	-2.750106764577679e-08	2.376109963673507e-08	7.754234210751467e-09	-2.710766222654116e-08	1.362971358324772e-08	-7.695493861850523e-09
1.02	-0.06292823199235906	-0.06296389262165075	0.7984722106803844	0.9463158745059566	-0.3241414241502044	-0.07979379399684002	-0.9598398047846562	0.949307353305854	0.9493073533058366	-0.08354829640779167	-0.1745210673595447	0.133125038167209	0.01391652894959795	0.1264715312163586	0.03405073642264927	0.07672257435734446	-0.3662466820954599	0.00814914034459255	-0.08532014718508135	0.01381356288706738	-0.2436787985552559	-0.243678798555239	-0.005880501819854247	9.739247402558719e-05	-0.01657551632354624	0.004569997064671019	-0.3292093992599305	0.0341792235260663	-0.007110670981720733	-0.2568215329441361	0.08104694105023495	0.04792929260605834	0.3995970895202227	-22.41946817279037	-17.92021100172533	3.579178612199105	3.480367786245846	-766.0641535010924	-74.80635313276852	-8.575370049179334	0.6116448462762714	0.2325509395516622	0.8438182032829695	-3.426622976809288	0.07999258115440266	-1.070538482098074	0.9512506041143427	-3.447758626575275	-3.447758626575337	-0.2688894727455055	-0.001208764681521748	-0.8555497049812859	-0.2046779945424526	-1.315928586236605e-08	-3.509682196772034e-08	2.852576544312891e-08	8.071830201692514e-09	-2.973095071093817e-08	1.173971968270007e-08	-9.218934291563317e-09
1.03	-0.06163370075528956	-0.06261158441591619	0.7992813587758727	0.9424833328885556	-0.3240555782216192	-0.08070029331461369	-0.9596523393512973	0.9466988506470131	0.9466988506469899	-0.08361995924166402	-0.1745197255039623	0.1329168793626222	0.01395253225679008	0.1323976516534534	0.03642993335817327	0.08509122251839865	-0.4002146456005761	0.009022418039464368	-0.09597202553936093	0.02380892944584819	-0.2779943332749946	-0.2779943332749669	-0.008454513439813819	0.0001664575475638638	-0.02503642824232489	0.002640334434202749	-0.3289287574888142	0.03433437723959432	-0.007113928648638008	-0.2561434151781505	0.08094531285129278	0.04802788316785987	0.3998938204961007	-22.43564018122957	-17.97893170870443	3.609939516190681	3.165494335419527	-766.0745473877237	-74.88788488932411	-8.682684929653083	0.5775354258602111	0.2434600399872918	0.8310083065436261	-3.374834932015619	0.09135347621278184	-1.061370290774996	1.043090530667502	-3.419338746805574	-3.419338746803907	-0.252032866056283	0.0102935322199104	-0.8383918484785123	-0.1856568093938153	-1.4964562447572e-08	-4.269439940797219e-08	3.327755134814263e-08	8.363153445190486e-09	-3.23344766275798e-08	9.836527094183111e-09	-1.073985943407134e-08
1.04	-0.06028102035716514	-0.06223491304693949	0.8001737173897769	0.9383125212571689	-0.3239609278935747	-0.08171308297166464	-0.9593610380825606	0.9437480150705494	0.9437480150705205	-0.08371743736362355	-0.174517827119876	0.1326247054562168	0.01396952965525858	0.1381013634279174	0.03892336907107567	0.09336467804052873	-0.4339006848918053	0.009910020236704186	-0.1065782150409248	0.03458072996093311	-0.3121453820800303	-0.3121453820799916	-0.0110435594371774	0.0002086981750380776	-0.03337853668719831	0.0007688153199421258	-0.3286481157177061	0.03448953095312342	-0.007117186315575736	-0.2554652974121663	0.08084368465235166	0.04812647372966327	0.4001905514719713	-22.46380967194544	-18.03609803557206	3.641076618621395	2.883844015315616	-766.2504335813244	-74.97528052797696	-8.80400608099365	0.5671631137501251	0.2553986950273243	0.8247796754981382	-3.370238134031878	0.0828574816279993	-1.06140071155494	1.106537395375115	-3.414861443634706	-3.414861443634699	-0.2718963482263085	-0.00657365389434465	-0.8317890102002669	-0.1930492913009364	-1.650082519492128e-08	-4.955792105601718e-08	3.62501849783399e-08	8.837003649594162e-09	-3.528765528657918e-08	7.575133401571606e-09	-1.183406648797062e-08
